<svg width="29" height="29" viewBox="0 0 29 29" fill="none" xmlns="http://www.w3.org/2000/svg">
<path d="M14.5 27.0708C7.607 27.0708 2 21.4638 2 14.5708C2 7.6778 7.607 2.0708 14.5 2.0708C21.393 2.0708 27 7.6778 27 14.5708C27 21.4638 21.393 27.0708 14.5 27.0708ZM14.5 4.0708C8.71 4.0708 4 8.7808 4 14.5708C4 20.3608 8.71 25.0708 14.5 25.0708C20.29 25.0708 25 20.3598 25 14.5708C25 8.7818 20.29 4.0708 14.5 4.0708Z" fill="black"/>
<path d="M14.5 21.5708C14.2348 21.5708 13.9804 21.4654 13.7929 21.2779C13.6054 21.0904 13.5 20.836 13.5 20.5708V8.5708C13.5 8.30558 13.6054 8.05123 13.7929 7.86369C13.9804 7.67616 14.2348 7.5708 14.5 7.5708C14.7652 7.5708 15.0196 7.67616 15.2071 7.86369C15.3946 8.05123 15.5 8.30558 15.5 8.5708V20.5708C15.5 20.836 15.3946 21.0904 15.2071 21.2779C15.0196 21.4654 14.7652 21.5708 14.5 21.5708Z" fill="black"/>
<path d="M20.5 15.5708H8.5C8.23478 15.5708 7.98043 15.4654 7.79289 15.2779C7.60536 15.0904 7.5 14.836 7.5 14.5708C7.5 14.3056 7.60536 14.0512 7.79289 13.8637C7.98043 13.6762 8.23478 13.5708 8.5 13.5708H20.5C20.7652 13.5708 21.0196 13.6762 21.2071 13.8637C21.3946 14.0512 21.5 14.3056 21.5 14.5708C21.5 14.836 21.3946 15.0904 21.2071 15.2779C21.0196 15.4654 20.7652 15.5708 20.5 15.5708Z" fill="black"/>
</svg>
