<svg width="232" height="223" viewBox="0 0 232 223" fill="none" xmlns="http://www.w3.org/2000/svg">
<path d="M58 195.125C49.996 195.125 43.5 201.369 43.5 209.062C43.5 216.756 49.996 223 58 223C66.004 223 72.5 216.756 72.5 209.062C72.5 201.369 66.004 195.125 58 195.125ZM58 213.708C55.335 213.708 53.1667 211.624 53.1667 209.062C53.1667 206.501 55.335 204.417 58 204.417C60.665 204.417 62.8333 206.501 62.8333 209.062C62.8333 211.624 60.665 213.708 58 213.708ZM193.635 195.125C185.631 195.125 179.135 201.369 179.135 209.062C179.135 216.756 185.631 223 193.635 223C201.639 223 208.135 216.756 208.135 209.062C208.135 201.369 201.639 195.125 193.635 195.125ZM193.635 213.708C190.97 213.708 188.802 211.624 188.802 209.062C188.802 206.501 190.97 204.417 193.635 204.417C196.3 204.417 198.469 206.501 198.469 209.062C198.469 211.624 196.3 213.708 193.635 213.708ZM232 37.1667L35.7528 18.3778C34.7692 14.3289 33.1132 9.86426 28.6006 6.37582C22.9734 2.02616 13.885 0 0 0V9.29225C11.246 9.29225 18.8301 10.7476 22.5427 13.6169C25.236 15.6989 25.9526 18.5084 26.8715 22.9022L26.857 22.9045L52.2634 158.585C53.7213 166.96 56.6098 173.225 60.2934 177.741C64.6718 183.111 70.4054 185.833 77.3333 185.833H222.333V176.542H77.3333C74.4774 176.542 65.772 176.613 61.7767 156.939L58.4966 139.424L222.333 111.5L232 37.1667ZM214.231 103.572L56.785 130.28L37.6136 27.8971L221.201 45.672L214.231 103.572Z" fill="black"/>
<path d="M144.019 92.9993C143.786 93.0018 143.559 92.9296 143.368 92.7925C137.972 88.9043 131.469 87.0256 124.915 87.4618C119.761 87.863 114.807 89.702 110.575 92.7845C110.452 92.8744 110.312 92.938 110.165 92.9719C110.017 93.0057 109.865 93.0091 109.716 92.9817C109.567 92.9544 109.425 92.8969 109.298 92.8126C109.171 92.7282 109.061 92.6187 108.974 92.4901C108.888 92.3616 108.827 92.2167 108.794 92.0635C108.761 91.9104 108.758 91.7521 108.784 91.5977C108.811 91.4433 108.866 91.2958 108.947 91.1636C109.029 91.0314 109.134 90.9171 109.258 90.8273C113.831 87.4987 119.185 85.514 124.754 85.0828C131.826 84.6087 138.845 86.6332 144.67 90.8273C144.87 90.9723 145.02 91.1797 145.099 91.4194C145.178 91.6591 145.182 91.9188 145.109 92.1607C145.037 92.4026 144.892 92.6143 144.696 92.7651C144.5 92.9159 144.263 92.9979 144.019 92.9993ZM111.517 65.8047C110.211 65.8061 108.93 65.4361 107.812 64.7348C106.694 64.0336 105.782 63.0278 105.175 61.8265C105.091 61.6878 105.036 61.5328 105.013 61.371C104.989 61.2092 104.998 61.0441 105.039 60.886C105.079 60.7279 105.151 60.5802 105.249 60.452C105.347 60.3238 105.469 60.2178 105.608 60.1407C105.747 60.0637 105.899 60.0171 106.056 60.0039C106.213 59.9907 106.371 60.0112 106.52 60.0641C106.669 60.117 106.806 60.2011 106.923 60.3113C107.039 60.4215 107.133 60.5554 107.197 60.7047C107.615 61.5165 108.237 62.1952 108.998 62.6683C109.758 63.1415 110.627 63.3914 111.514 63.3914C112.4 63.3914 113.269 63.1415 114.03 62.6683C114.79 62.1952 115.412 61.5165 115.83 60.7047C115.901 60.5663 115.997 60.4437 116.114 60.344C116.23 60.2443 116.365 60.1694 116.509 60.1235C116.654 60.0777 116.805 60.0619 116.955 60.077C117.106 60.0921 117.252 60.1377 117.385 60.2114C117.518 60.2851 117.636 60.3853 117.732 60.5063C117.828 60.6273 117.9 60.7668 117.945 60.9168C117.989 61.0668 118.004 61.2243 117.989 61.3804C117.975 61.5365 117.931 61.6881 117.86 61.8265C117.251 63.0261 116.339 64.0304 115.221 64.7314C114.104 65.4324 112.823 65.8035 111.517 65.8047ZM143.49 65.8047C142.184 65.8061 140.903 65.4361 139.785 64.7348C138.667 64.0336 137.755 63.0278 137.148 61.8265C137.064 61.6878 137.009 61.5328 136.986 61.371C136.962 61.2092 136.971 61.0441 137.012 60.886C137.052 60.7279 137.124 60.5802 137.221 60.452C137.319 60.3238 137.442 60.2178 137.58 60.1407C137.719 60.0637 137.872 60.0171 138.029 60.0039C138.186 59.9907 138.344 60.0112 138.493 60.0641C138.642 60.117 138.779 60.2011 138.896 60.3113C139.012 60.4215 139.105 60.5554 139.17 60.7047C139.588 61.5165 140.21 62.1952 140.97 62.6683C141.731 63.1415 142.6 63.3914 143.486 63.3914C144.373 63.3914 145.242 63.1415 146.002 62.6683C146.763 62.1952 147.385 61.5165 147.803 60.7047C147.867 60.5554 147.961 60.4215 148.077 60.3113C148.194 60.2011 148.331 60.117 148.48 60.0641C148.629 60.0112 148.787 59.9907 148.944 60.0039C149.101 60.0171 149.253 60.0637 149.392 60.1407C149.531 60.2178 149.653 60.3238 149.751 60.452C149.849 60.5802 149.921 60.7279 149.961 60.886C150.002 61.0441 150.011 61.2092 149.987 61.371C149.964 61.5328 149.909 61.6878 149.825 61.8265C149.219 63.0266 148.308 64.0316 147.191 64.7328C146.075 65.4339 144.795 65.8046 143.49 65.8047Z" fill="#2E2F42"/>
</svg>
