<svg width="25" height="25" viewBox="0 0 25 25" fill="none" xmlns="http://www.w3.org/2000/svg">
<path d="M21.3542 6.25H3.64575" stroke="black" stroke-linecap="round"/>
<path d="M19.618 8.85413L19.1388 16.0407C18.9544 18.8062 18.8623 20.189 17.9612 21.0319C17.0602 21.875 15.6743 21.875 12.9027 21.875H12.0971C9.32543 21.875 7.9396 21.875 7.03854 21.0319C6.1375 20.189 6.04532 18.8062 5.86094 16.0407L5.38184 8.85413" stroke="black" stroke-linecap="round"/>
<path d="M9.89575 11.4584L10.4166 16.6667" stroke="black" stroke-linecap="round"/>
<path d="M15.1041 11.4584L14.5833 16.6667" stroke="black" stroke-linecap="round"/>
<path d="M6.77075 6.25C6.82896 6.25 6.85806 6.25 6.88445 6.24933C7.7422 6.22759 8.4989 5.6822 8.79077 4.87533C8.79975 4.85051 8.80895 4.82291 8.82736 4.76768L8.92849 4.46428C9.01482 4.20529 9.05799 4.07579 9.11524 3.96583C9.34368 3.52716 9.76631 3.22254 10.2547 3.14455C10.3771 3.125 10.5137 3.125 10.7867 3.125H14.2131C14.4862 3.125 14.6227 3.125 14.7451 3.14455C15.2336 3.22254 15.6562 3.52716 15.8846 3.96583C15.9419 4.07579 15.985 4.20529 16.0714 4.46428L16.1725 4.76768C16.1909 4.82283 16.2001 4.85053 16.2091 4.87533C16.501 5.6822 17.2576 6.22759 18.1154 6.24933C18.1418 6.25 18.1709 6.25 18.2291 6.25" stroke="black"/>
</svg>
