<svg width="30" height="30" viewBox="0 0 30 30" fill="none" xmlns="http://www.w3.org/2000/svg">
<path d="M7.5 26.25C6.465 26.25 5.625 27.09 5.625 28.125C5.625 29.16 6.465 30 7.5 30C8.535 30 9.375 29.16 9.375 28.125C9.375 27.09 8.535 26.25 7.5 26.25ZM7.5 28.75C7.15539 28.75 6.875 28.4696 6.875 28.125C6.875 27.7804 7.15539 27.5 7.5 27.5C7.84461 27.5 8.125 27.7804 8.125 28.125C8.125 28.4696 7.84461 28.75 7.5 28.75ZM25.0391 26.25C24.0041 26.25 23.1641 27.09 23.1641 28.125C23.1641 29.16 24.0041 30 25.0391 30C26.0741 30 26.9141 29.16 26.9141 28.125C26.9141 27.09 26.0741 26.25 25.0391 26.25ZM25.0391 28.75C24.6945 28.75 24.4141 28.4696 24.4141 28.125C24.4141 27.7804 24.6945 27.5 25.0391 27.5C25.3837 27.5 25.6641 27.7804 25.6641 28.125C25.6641 28.4696 25.3837 28.75 25.0391 28.75ZM30 5L4.6232 2.47234C4.49602 1.92766 4.28187 1.32703 3.69836 0.857734C2.9707 0.272578 1.79547 0 0 0V1.25008C1.45422 1.25008 2.43492 1.44586 2.915 1.83187C3.26328 2.11195 3.35594 2.48992 3.47477 3.08102L3.47289 3.08133L6.7582 21.3343C6.94672 22.461 7.32023 23.3038 7.79656 23.9113C8.36273 24.6338 9.10414 25 10 25H28.75V23.75H10C9.6307 23.75 8.505 23.7596 7.98836 21.1129L7.56422 18.7566L28.75 15L30 5ZM27.7023 13.9334L7.34289 17.5264L4.86383 3.75297L28.6036 6.14422L27.7023 13.9334Z" fill="black"/>
</svg>
