<svg width="30" height="30" viewBox="0 0 30 30" fill="none" xmlns="http://www.w3.org/2000/svg">
<path d="M15 0C11.023 0.00410997 7.21009 1.58578 4.39794 4.39793C1.58578 7.21008 0.00410998 11.023 0 15C0 19.0078 1.55922 22.7739 4.39154 25.6062C5.78131 27.0038 7.43456 28.1118 9.25554 28.866C11.0765 29.6202 13.029 30.0056 15 29.9999C18.977 29.9958 22.7899 28.4142 25.6021 25.602C28.4142 22.7899 29.9959 18.9769 30 15C29.9959 11.023 28.4142 7.21008 25.6021 4.39793C22.7899 1.58578 18.977 0.00410997 15 0ZM5.93302 25.5086C6.96975 24.1598 8.29768 23.0626 9.81772 22.2987C11.3378 21.5348 13.0107 21.1241 14.7117 21.0971C14.7649 21.0993 14.8159 21.1126 14.8691 21.1126H14.9202C14.9689 21.1126 15.0133 21.0993 15.0621 21.0971C16.7866 21.1264 18.4814 21.5507 20.0163 22.3374C21.5512 23.1241 22.8854 24.2522 23.9162 25.635C21.4222 27.7398 18.2634 28.8933 15 28.891C11.6681 28.8969 8.44695 27.6953 5.93302 25.5086ZM14.8758 19.977C14.8203 19.977 14.7671 19.9859 14.7117 19.9881C13.4171 19.9443 12.1906 19.3972 11.2931 18.4632C10.3955 17.5292 9.89769 16.282 9.90537 14.9867C9.90769 14.331 10.0394 13.6822 10.293 13.0775C10.5466 12.4729 10.9171 11.9242 11.3832 11.4631C11.8493 11.0019 12.4019 10.6373 13.0092 10.3902C13.6166 10.143 14.2667 10.0182 14.9224 10.0229C15.5781 10.0252 16.2268 10.157 16.8315 10.4106C17.4361 10.6642 17.9848 11.0346 18.446 11.5008C18.9071 11.9669 19.2717 12.5194 19.5189 13.1268C19.766 13.7341 19.8908 14.3842 19.8861 15.0399C19.8861 17.728 17.7347 19.9127 15.0643 19.9903C15.0022 19.9881 14.9401 19.977 14.8758 19.977ZM24.739 24.8898C23.024 22.6265 20.5845 21.0201 17.8279 20.3386C18.7871 19.8129 19.5873 19.039 20.1446 18.0977C20.7018 17.1565 20.9956 16.0827 20.9951 14.9889C20.9925 14.1876 20.8319 13.3948 20.5224 12.6557C20.213 11.9167 19.7608 11.2459 19.1918 10.6818C18.6228 10.1177 17.9481 9.67142 17.2063 9.36844C16.4646 9.06546 15.6704 8.91176 14.8691 8.91614C14.0679 8.91876 13.2751 9.07938 12.536 9.38882C11.7969 9.69826 11.1261 10.1504 10.5621 10.7195C9.99797 11.2885 9.55167 11.9632 9.24869 12.7049C8.94571 13.4467 8.79201 14.2409 8.79639 15.0421C8.80047 16.1257 9.09526 17.1884 9.65002 18.1192C10.2048 19.05 10.9992 19.815 11.9503 20.3341C9.24021 20.9998 6.8331 22.5584 5.11681 24.7589C2.54258 22.1661 1.10201 18.6581 1.11119 15.0044C1.1153 11.3215 2.58014 7.7907 5.18432 5.18653C7.7885 2.58235 11.3194 1.11752 15.0022 1.11341C18.6851 1.11752 22.2159 2.58235 24.8201 5.18653C27.4243 7.7907 28.8891 11.3215 28.8932 15.0044C28.8923 16.8455 28.5245 18.6679 27.8112 20.3653C27.0979 22.0626 26.0535 23.6007 24.739 24.8898Z" fill="#231F20"/>
</svg>
